<svg version="1.2" xmlns="http://www.w3.org/2000/svg" viewBox="0 0 144 144" width="144" height="144">
	<style>
		.s0 { fill: #ffffff } 
	</style>
	<path id="Form 1" class="s0" d="m119.17 32.75c2.83-3.08 2.38-7.64-1.02-10.2-3.4-2.55-8.46-2.14-11.28 0.93l-33.87 36.72-33.87-36.72c-2.82-3.07-7.88-3.48-11.28-0.93-3.4 2.56-3.85 7.12-1.02 10.2l35.74 38.75-35.74 38.75c-2.83 3.08-2.38 7.64 1.02 10.2 3.4 2.55 8.46 2.14 11.28-0.93l33.87-36.72 33.87 36.72c2.82 3.07 7.88 3.48 11.28 0.93 3.4-2.56 3.85-7.12 1.02-10.2l-35.74-38.75z"/>
</svg>