<svg version="1.2" xmlns="http://www.w3.org/2000/svg" viewBox="0 0 144 144" width="144" height="144">
	<style>
		.s0 { fill: #ffffff }
		.s1 { fill: #ffffff } 
	</style>
	<path id="Layer copy" class="s0" d="m42 11c-9.87 0-18 8.13-18 18v72c0 9.87 8.13 18 18 18h72c9.87 0 18-8.13 18-18v-72c0-9.87-8.13-18-18-18zm0 12h72c3.38 0 6 2.62 6 6v72c0 3.38-2.62 6-6 6h-72c-3.38 0-6-2.62-6-6v-72c0-3.38 2.62-6 6-6z"/>
	<path class="s1" d="m30 24c-9.87 0-18 8.13-18 18v72c0 9.87 8.13 18 18 18h72c9.87 0 18-8.13 18-18v-72c0-9.87-8.13-18-18-18zm0 12h72c3.38 0 6 2.62 6 6v72c0 3.38-2.62 6-6 6h-72c-3.38 0-6-2.62-6-6v-72c0-3.38 2.62-6 6-6z"/>
</svg>